<?xml version="1.0" standalone="no"?>
<!DOCTYPE svg PUBLIC "-//W3C//DTD SVG 20010904//EN"
 "http://www.w3.org/TR/2001/REC-SVG-20010904/DTD/svg10.dtd">
<svg version="1.0" xmlns="http://www.w3.org/2000/svg"
 width="104.000000pt" height="104.000000pt" viewBox="0 0 104.000000 104.000000"
 preserveAspectRatio="xMidYMid meet">
<metadata>
Created by potrace 1.14, written by Peter Selinger 2001-2017
</metadata>
<g transform="translate(0.000000,104.000000) scale(0.100000,-0.100000)"
fill="#000000" stroke="none">
<path d="M400 973 c-85 -24 -148 -62 -215 -130 -178 -181 -177 -468 3 -650
121 -122 285 -170 445 -128 65 17 147 56 166 79 12 14 6 16 -62 16 l-76 0 -82
146 -82 147 -28 -34 c-27 -33 -28 -38 -29 -146 l0 -113 -80 0 -80 0 0 345 0
345 80 0 79 0 3 -144 3 -144 96 141 95 142 97 3 c53 1 97 0 97 -4 0 -4 -48
-68 -107 -143 -58 -75 -106 -140 -106 -146 0 -11 199 -342 218 -363 9 -10 19
-5 47 30 170 208 133 510 -82 671 -33 25 -86 55 -117 67 -80 30 -200 35 -283
13z"/>
</g>
</svg>
